<?xml version="1.0" encoding="utf-8"?>
<!-- Generator: Adobe Illustrator 18.0.0, SVG Export Plug-In . SVG Version: 6.00 Build 0)  -->
<!DOCTYPE svg PUBLIC "-//W3C//DTD SVG 1.1//EN" "http://www.w3.org/Graphics/SVG/1.1/DTD/svg11.dtd">
<svg version="1.1" id="Layer_1" xmlns="http://www.w3.org/2000/svg" xmlns:xlink="http://www.w3.org/1999/xlink" x="0px" y="0px"
	 viewBox="0 194.2 841.9 172.2" enable-background="new 0 194.2 841.9 172.2" xml:space="preserve">
<g>
	<g>
		<path fill="#919191" d="M62.8,366.4c-16.6,0-40.8-6.4-40.8-42.7v-61.9H1.6v-10.8L22,249v-34.4l15.3-0.6l3.2,33.8l40.2-0.6v14.7
			H41.8v59.3c0,23,10.8,28.1,23.6,28.1c5.1,0,12.8-0.6,18.5-2.6l3.2,15.3C78.1,365.7,69.2,366.4,62.8,366.4z"/>
		<path fill="#919191" d="M252.9,366.4c-12.8,0-30-5.1-30-36.4V198l19.8-3.2v134.6c0,17.9,7.7,20.4,15.3,20.4c2.6,0,5.1,0,7-0.6
			l4.5,15.3C265,365.7,259.9,366.4,252.9,366.4z"/>
		<path fill="#919191" d="M357.5,363.2L317.3,309h-12.1v54.2h-19.8V198l19.8-3.2v105.9l50.4-52.9h23l-47.2,48.5l49.1,67L357.5,363.2
			L357.5,363.2z"/>
		<path fill="#919191" d="M479.9,363.2l-0.6-7.7c-8.3,6.4-19.8,10.8-31.9,10.8c-28.7,0-52.3-19.1-52.3-61.9
			c0-42.1,23.6-61.9,57.4-61.9c7.7,0,16.6,1.9,23,4.5v-49.7l19.8-3.2v168.4h-15.3V363.2z M475.5,265.6c-6.4-2.6-14.7-4.5-23-4.5
			c-22.3,0-37.6,12.8-37.6,44c0,31.9,16.6,42.7,33.8,42.7c9.6,0,19.1-4.5,26.8-10.2V265.6z"/>
		<path fill="#80B9E4" d="M546.9,317.2c0.6,19.1,15.3,27.4,33.2,27.4c12.8,0,21-1.9,29.3-5.1l3.8,18.5c-8.9,3.8-21.7,7-37,7
			c-34.4,0-54.9-21-54.9-54.2c0-29.3,17.9-57.4,52.3-57.4c34.4,0,45.9,28.7,45.9,52.3c0,5.1-0.6,8.9-0.6,11.5H546.9z M593.5,298.1
			c0-9.6-4.5-26.1-22.3-26.1c-16.6,0-23.6,15.3-24.9,26.1H593.5z"/>
		<path fill="#919191" d="M672.6,366.4c-15.3,0-24.9-2.6-33.2-5.7l2.6-15.9c8.3,3.8,17.2,6.4,30,6.4c14.7,0,28.1-5.1,28.1-19.8
			c0-4.5-1.9-7.7-7-12.1c-8.3-6.4-24.2-10.2-34.4-17.9c-8.9-6.4-13.4-15.3-13.4-25.5c0-20.4,16.6-33.2,37-33.2
			c10.8,0,18.5,1.9,26.8,5.1l-1.9,14.7c-6.4-2.6-12.8-3.8-22.3-3.8c-12.8,0-19.8,6.4-19.8,16.6c0,5.7,3.8,10.8,14,16.6
			c12.1,5.7,19.1,7.7,28.7,14c8.9,5.7,12.8,14,12.8,24.2C719.8,358.7,693,366.4,672.6,366.4z"/>
		<path fill="#919191" d="M816.7,363.2L777.2,309H765v54.2h-19.8V198l19.8-3.2v105.9l50.4-52.9h23l-47.2,49.1l49.1,67L816.7,363.2
			L816.7,363.2z"/>
		<path fill="#919191" d="M173.8,363.8c-0.6-2.6-1.3-5.1-1.9-8.3c-10.8,8.3-22.3,10.8-34.4,10.8c-23,0-38.9-14.7-38.9-37.6
			c0-28.1,30-37.6,70.8-38.3v-3.8c0-23-10.2-26.8-23.6-26.8c-7,0-17.9,1.9-26.1,5.1l-4.5-14.7c10.2-3.8,24.9-7,35.1-7
			c16.6,0,38.9,4.5,38.9,40.2v58c0,6.4,0.6,14.7,1.9,21L173.8,363.8z M169.3,303.9c-30,0-51,6.4-51,24.2c0,14.7,9.6,23,24.9,23
			c8.9,0,18.5-2.6,26.1-10.8V303.9z"/>
		<path fill="#80B9E4" d="M523.3,256.7c1.3-12.8,12.1-22.3,25.5-22.3h45.3c13.4,0,24.2,9.6,25.5,22.3h8.3c3.2,0,5.7,0.6,8.9,1.3
			v-5.1c0-21.7-17.2-38.9-38.9-38.9H545c-21.7,0-38.9,17.2-38.9,38.9v4.5c2.6-0.6,5.7-1.3,8.9-1.3L523.3,256.7L523.3,256.7z"/>
	</g>
</g>
</svg>
